<!-- Generated device preview for garethpaul/tv-os-darkmode -->
<svg xmlns="http://www.w3.org/2000/svg" width="1200" height="675" viewBox="0 0 1200 675" role="img" aria-labelledby="d1gte912-title d1gte912-desc">
  <title id="d1gte912-title">TV Os Darkmode device preview</title>
  <desc id="d1gte912-desc">Apple TV preview for garethpaul/tv-os-darkmode. Generated screen preview.</desc>
  <defs>
    <linearGradient id="d1gte912-bg" x1="0" y1="0" x2="1" y2="1"><stop offset="0%" stop-color="#dbeafe"/><stop offset="55%" stop-color="#f8fafc"/><stop offset="100%" stop-color="#fce7f3"/></linearGradient>
    <linearGradient id="d1gte912-device" x1="0" y1="0" x2="1" y2="1"><stop offset="0%" stop-color="#020617"/><stop offset="62%" stop-color="#111827"/><stop offset="100%" stop-color="#111827"/></linearGradient>
    <linearGradient id="d1gte912-screen" x1="0" y1="0" x2="1" y2="1"><stop offset="0%" stop-color="#eff6ff"/><stop offset="100%" stop-color="#fdf2f8"/></linearGradient>
    <linearGradient id="d1gte912-accent" x1="0" y1="0" x2="1" y2="1"><stop offset="0%" stop-color="#2563eb"/><stop offset="55%" stop-color="#14b8a6"/><stop offset="100%" stop-color="#f97316"/></linearGradient>
    <filter id="d1gte912-shadow" x="-20%" y="-20%" width="140%" height="150%"><feDropShadow dx="0" dy="24" stdDeviation="22" flood-color="#0f172a" flood-opacity="0.20"/></filter>
    <filter id="d1gte912-softShadow" x="-20%" y="-20%" width="140%" height="150%"><feDropShadow dx="0" dy="12" stdDeviation="14" flood-color="#0f172a" flood-opacity="0.13"/></filter>
    <clipPath id="d1gte912-tablet-screen"><rect x="118" y="160" width="484" height="296" rx="28"/></clipPath>
    <style>.ui { font-family: ui-sans-serif, system-ui, -apple-system, BlinkMacSystemFont, "Segoe UI", sans-serif; letter-spacing: 0; }</style>
  </defs>
  <rect width="1200" height="675" fill="url(#d1gte912-bg)"/>
  <path d="M0 560 C170 502 282 636 438 560 C612 476 732 420 908 474 C1052 518 1110 390 1200 344 L1200 675 L0 675Z" fill="#2563eb" opacity="0.08"/>
  <circle cx="1040" cy="118" r="180" fill="#14b8a6" opacity="0.12"/>
  <circle cx="128" cy="586" r="168" fill="#f97316" opacity="0.12"/>
  <g class="ui">
    <g><rect x="76" y="128" width="568" height="360" rx="44" fill="url(#d1gte912-device)" filter="url(#d1gte912-shadow)"/><circle cx="98" cy="308" r="6" fill="#475569"/><rect x="118" y="160" width="484" height="296" rx="28" fill="url(#d1gte912-screen)"/><g clip-path="url(#d1gte912-tablet-screen)"><rect x="118" y="160" width="484" height="296" fill="url(#d1gte912-screen)"/><rect x="118" y="160" width="484" height="54" fill="#2563eb" opacity="0.95"/><circle cx="152" cy="187" r="10" fill="#ffffff" opacity="0.92"/><text x="176" y="193" fill="#ffffff" font-size="18" font-weight="850">TV Os Darkmode</text><rect x="146" y="242" width="428" height="59" rx="22" fill="#ffffff" opacity="0.93"/><rect x="170" y="270" width="184" height="14" rx="7" fill="#2563eb" opacity="0.82"/><rect x="170" y="300" width="266" height="12" rx="6" fill="#cbd5e1"/><rect x="500" y="270" width="46" height="46" rx="15" fill="#14b8a6" opacity="0.72"/><rect x="146" y="316" width="206" height="53" rx="20" fill="#ffffff" opacity="0.84"/><rect x="368" y="316" width="206" height="53" rx="20" fill="#ffffff" opacity="0.84"/><path d="M170 368 C 254 326, 331 400, 418 358 S 525 376, 558 334" fill="none" stroke="#f97316" stroke-width="8" stroke-linecap="round" opacity="0.78"/><rect x="146" y="408" width="428" height="10" rx="5" fill="#cbd5e1" opacity="0.76"/></g></g>
    <g transform="translate(700 116)"><rect x="0" y="0" width="390" height="80" rx="24" fill="#ffffff" opacity="0.92" filter="url(#d1gte912-softShadow)"/><circle cx="42" cy="40" r="18" fill="url(#d1gte912-accent)"/><text x="76" y="34" fill="#64748b" font-size="14" font-weight="800" text-transform="uppercase">Apple TV preview</text><text x="76" y="58" fill="#0f172a" font-size="18" font-weight="850">Generated app screen</text></g>
    <g transform="translate(700 236)"><text x="0" y="0" fill="#0f172a" font-size="44" font-weight="850">TV Os Darkmode</text><text x="2" y="168" fill="#475569" font-size="20" font-weight="560">An Apple platform application or</text>
<text x="2" y="198" fill="#475569" font-size="20" font-weight="560">Objective-C/Swift sample.</text>
<text x="2" y="228" fill="#475569" font-size="20" font-weight="560">Implementing</text></g>
    <g transform="translate(700 496)"><rect x="0" y="0" width="390" height="82" rx="24" fill="#0f172a" opacity="0.95" filter="url(#d1gte912-softShadow)"/><text x="28" y="34" fill="#cbd5e1" font-size="15" font-weight="750">garethpaul/tv-os-darkmode</text><text x="28" y="60" fill="#14b8a6" font-size="15" font-weight="800">docs/device-preview.svg</text><circle cx="346" cy="41" r="16" fill="#2563eb"/><circle cx="366" cy="41" r="16" fill="#14b8a6" opacity="0.86"/></g>
  </g>
</svg>
